<svg width="59" height="36" viewBox="0 0 59 36" fill="none" xmlns="http://www.w3.org/2000/svg">
<path d="M11.616 35.856C9.376 35.856 7.376 35.52 5.616 34.848C3.856 34.176 2.48 33.232 1.488 32.016C0.496 30.768 0 29.344 0 27.744C0 27.456 0.032 27.024 0.096 26.448H9.168C9.136 27.344 9.408 28.032 9.984 28.512C10.56 28.992 11.36 29.232 12.384 29.232C13.184 29.232 13.84 29.072 14.352 28.752C14.896 28.432 15.168 28.016 15.168 27.504C15.168 26.896 14.832 26.432 14.16 26.112C13.488 25.76 12.368 25.328 10.8 24.816C8.976 24.24 7.472 23.68 6.288 23.136C5.104 22.592 4.064 21.792 3.168 20.736C2.304 19.68 1.872 18.32 1.872 16.656C1.872 15.056 2.336 13.616 3.264 12.336C4.224 11.056 5.568 10.064 7.296 9.36C9.024 8.624 11.024 8.256 13.296 8.256C15.728 8.256 17.824 8.672 19.584 9.504C21.376 10.304 22.704 11.424 23.568 12.864C24.464 14.304 24.864 15.904 24.768 17.664H16.32C16.352 16.8 16.096 16.128 15.552 15.648C15.008 15.136 14.224 14.88 13.2 14.88C12.464 14.88 11.856 15.04 11.376 15.36C10.896 15.68 10.656 16.096 10.656 16.608C10.656 17.216 10.992 17.696 11.664 18.048C12.368 18.4 13.536 18.848 15.168 19.392C16.96 19.968 18.448 20.544 19.632 21.12C20.848 21.664 21.888 22.448 22.752 23.472C23.616 24.464 24.048 25.744 24.048 27.312C24.048 29.968 22.896 32.064 20.592 33.6C18.288 35.104 15.296 35.856 11.616 35.856Z" fill="#FFF3B0"/>
<path d="M40.6732 12.336C41.6012 11.088 42.8013 10.096 44.2733 9.36C45.7773 8.624 47.4412 8.256 49.2653 8.256C52.0813 8.256 54.3372 9.184 56.0333 11.04C57.7613 12.896 58.6253 15.44 58.6253 18.672C58.6253 19.696 58.5293 20.816 58.3372 22.032C57.8252 24.816 56.8812 27.264 55.5052 29.376C54.1292 31.456 52.4653 33.056 50.5133 34.176C48.5933 35.296 46.5613 35.856 44.4173 35.856C42.5613 35.856 41.0252 35.504 39.8092 34.8C38.6252 34.064 37.7773 33.056 37.2653 31.776L36.5933 35.52H27.1373L33.4253 0H42.8812L40.6732 12.336ZM48.7373 22.032C48.8333 21.552 48.8813 21.088 48.8813 20.64C48.8813 19.328 48.4973 18.304 47.7293 17.568C46.9933 16.832 46.0332 16.464 44.8493 16.464C43.4733 16.464 42.2093 16.96 41.0573 17.952C39.9373 18.944 39.2333 20.304 38.9453 22.032C38.8493 22.512 38.8013 22.96 38.8013 23.376C38.8013 24.72 39.1693 25.776 39.9053 26.544C40.6732 27.28 41.6493 27.648 42.8333 27.648C44.2413 27.648 45.5053 27.152 46.6253 26.16C47.7453 25.136 48.4492 23.76 48.7373 22.032Z" fill="#FFF3B0"/>
</svg>
